<mxfile host="Electron" modified="2023-10-03T14:38:01.654Z" agent="Mozilla/5.0 (Macintosh; Intel Mac OS X 10_15_7) AppleWebKit/537.36 (KHTML, like Gecko) draw.io/22.0.0 Chrome/114.0.5735.289 Electron/25.8.3 Safari/537.36" etag="vdr82RyHyAtReSjYK61p" version="22.0.0" type="device">
  <diagram name="Page-1" id="RcsFwqiE_mqMil7ZwmxQ">
    <mxGraphModel dx="1010" dy="732" grid="1" gridSize="10" guides="1" tooltips="1" connect="1" arrows="1" fold="1" page="1" pageScale="1" pageWidth="827" pageHeight="1169" background="none" math="0" shadow="1">
      <root>
        <mxCell id="0" />
        <mxCell id="1" parent="0" />
        <mxCell id="R0o29H9aw-5ZgJFbA4co-17" value="Management Api" style="rounded=1;whiteSpace=wrap;html=1;fillColor=#d5e8d4;strokeColor=#82b366;sketch=1;curveFitting=1;jiggle=2;gradientColor=#97d077;" parent="1" vertex="1">
          <mxGeometry x="820" y="610" width="120" height="60" as="geometry" />
        </mxCell>
        <mxCell id="R0o29H9aw-5ZgJFbA4co-19" value="Database" style="shape=cylinder3;whiteSpace=wrap;html=1;boundedLbl=1;backgroundOutline=1;size=15;fillColor=#d5e8d4;gradientColor=#97d077;strokeColor=#82b366;" parent="1" vertex="1">
          <mxGeometry x="1190" y="600" width="60" height="80" as="geometry" />
        </mxCell>
        <mxCell id="R0o29H9aw-5ZgJFbA4co-59" style="edgeStyle=orthogonalEdgeStyle;rounded=0;orthogonalLoop=1;jettySize=auto;html=1;dashed=1;strokeWidth=2;entryX=0;entryY=0.25;entryDx=0;entryDy=0;exitX=1;exitY=0.5;exitDx=0;exitDy=0;" parent="1" source="R0o29H9aw-5ZgJFbA4co-31" edge="1" target="R0o29H9aw-5ZgJFbA4co-17">
          <mxGeometry relative="1" as="geometry">
            <mxPoint x="830" y="630" as="targetPoint" />
            <Array as="points">
              <mxPoint x="750" y="500" />
              <mxPoint x="750" y="625" />
            </Array>
          </mxGeometry>
        </mxCell>
        <mxCell id="R0o29H9aw-5ZgJFbA4co-31" value="Management&amp;nbsp; UI" style="rounded=1;whiteSpace=wrap;html=1;fillColor=#d5e8d4;strokeColor=#82b366;sketch=1;curveFitting=1;jiggle=2;gradientColor=#97d077;" parent="1" vertex="1">
          <mxGeometry x="600" y="470" width="120" height="60" as="geometry" />
        </mxCell>
        <mxCell id="R0o29H9aw-5ZgJFbA4co-38" style="edgeStyle=orthogonalEdgeStyle;rounded=0;orthogonalLoop=1;jettySize=auto;html=1;entryX=0;entryY=0.5;entryDx=0;entryDy=0;dashed=1;strokeWidth=2;" parent="1" source="R0o29H9aw-5ZgJFbA4co-33" target="R0o29H9aw-5ZgJFbA4co-35" edge="1">
          <mxGeometry relative="1" as="geometry" />
        </mxCell>
        <mxCell id="R0o29H9aw-5ZgJFbA4co-41" style="edgeStyle=orthogonalEdgeStyle;rounded=0;orthogonalLoop=1;jettySize=auto;html=1;dashed=1;strokeWidth=2;entryX=0.5;entryY=1;entryDx=0;entryDy=0;" parent="1" source="R0o29H9aw-5ZgJFbA4co-33" target="R0o29H9aw-5ZgJFbA4co-40" edge="1">
          <mxGeometry relative="1" as="geometry">
            <Array as="points">
              <mxPoint x="830" y="460" />
              <mxPoint x="1050" y="460" />
            </Array>
          </mxGeometry>
        </mxCell>
        <mxCell id="R0o29H9aw-5ZgJFbA4co-33" value="Message Signer" style="rounded=1;whiteSpace=wrap;html=1;fillColor=#d5e8d4;strokeColor=#82b366;sketch=1;curveFitting=1;jiggle=2;gradientColor=#97d077;" parent="1" vertex="1">
          <mxGeometry x="770" y="470" width="120" height="60" as="geometry" />
        </mxCell>
        <mxCell id="R0o29H9aw-5ZgJFbA4co-35" value="Password Store" style="rounded=1;whiteSpace=wrap;html=1;fillColor=#d5e8d4;strokeColor=#82b366;sketch=1;curveFitting=1;jiggle=2;gradientColor=#97d077;" parent="1" vertex="1">
          <mxGeometry x="980" y="470" width="120" height="60" as="geometry" />
        </mxCell>
        <mxCell id="R0o29H9aw-5ZgJFbA4co-40" value="SSCD" style="rounded=1;whiteSpace=wrap;html=1;fillColor=#ffcd28;strokeColor=#d79b00;sketch=1;curveFitting=1;jiggle=2;gradientColor=#ffa500;" parent="1" vertex="1">
          <mxGeometry x="990" y="350" width="120" height="60" as="geometry" />
        </mxCell>
        <mxCell id="R0o29H9aw-5ZgJFbA4co-58" style="edgeStyle=orthogonalEdgeStyle;rounded=0;orthogonalLoop=1;jettySize=auto;html=1;dashed=1;strokeWidth=2;entryX=0;entryY=0.75;entryDx=0;entryDy=0;" parent="1" source="R0o29H9aw-5ZgJFbA4co-54" edge="1" target="R0o29H9aw-5ZgJFbA4co-17">
          <mxGeometry relative="1" as="geometry">
            <mxPoint x="800" y="670" as="targetPoint" />
            <Array as="points">
              <mxPoint x="770" y="655" />
              <mxPoint x="770" y="655" />
            </Array>
          </mxGeometry>
        </mxCell>
        <mxCell id="R0o29H9aw-5ZgJFbA4co-54" value="Management Services" style="rounded=1;whiteSpace=wrap;html=1;fillColor=#d5e8d4;strokeColor=#82b366;sketch=1;curveFitting=1;jiggle=2;gradientColor=#97d077;" parent="1" vertex="1">
          <mxGeometry x="590" y="610" width="120" height="60" as="geometry" />
        </mxCell>
        <mxCell id="R0o29H9aw-5ZgJFbA4co-64" style="edgeStyle=orthogonalEdgeStyle;rounded=0;orthogonalLoop=1;jettySize=auto;html=1;entryX=0.5;entryY=1;entryDx=0;entryDy=0;dashed=1;strokeWidth=2;" parent="1" source="R0o29H9aw-5ZgJFbA4co-62" target="R0o29H9aw-5ZgJFbA4co-35" edge="1">
          <mxGeometry relative="1" as="geometry">
            <Array as="points">
              <mxPoint x="1040" y="590" />
              <mxPoint x="1040" y="590" />
            </Array>
          </mxGeometry>
        </mxCell>
        <mxCell id="R0o29H9aw-5ZgJFbA4co-65" style="edgeStyle=orthogonalEdgeStyle;rounded=0;orthogonalLoop=1;jettySize=auto;html=1;entryX=0.5;entryY=1;entryDx=0;entryDy=0;strokeWidth=2;dashed=1;" parent="1" source="R0o29H9aw-5ZgJFbA4co-62" target="R0o29H9aw-5ZgJFbA4co-33" edge="1">
          <mxGeometry relative="1" as="geometry">
            <Array as="points">
              <mxPoint x="1000" y="580" />
              <mxPoint x="830" y="580" />
            </Array>
          </mxGeometry>
        </mxCell>
        <mxCell id="R0o29H9aw-5ZgJFbA4co-68" style="edgeStyle=orthogonalEdgeStyle;rounded=0;orthogonalLoop=1;jettySize=auto;html=1;entryX=0.5;entryY=1;entryDx=0;entryDy=0;dashed=1;strokeWidth=2;" parent="1" source="R0o29H9aw-5ZgJFbA4co-62" target="R0o29H9aw-5ZgJFbA4co-67" edge="1">
          <mxGeometry relative="1" as="geometry">
            <Array as="points">
              <mxPoint x="1080" y="570" />
              <mxPoint x="1200" y="570" />
            </Array>
          </mxGeometry>
        </mxCell>
        <mxCell id="R0o29H9aw-5ZgJFbA4co-62" value="Administration Service" style="rounded=1;whiteSpace=wrap;html=1;fillColor=#d5e8d4;strokeColor=#82b366;sketch=1;curveFitting=1;jiggle=2;gradientColor=#97d077;" parent="1" vertex="1">
          <mxGeometry x="970" y="610" width="120" height="60" as="geometry" />
        </mxCell>
        <mxCell id="R0o29H9aw-5ZgJFbA4co-63" style="edgeStyle=orthogonalEdgeStyle;rounded=0;orthogonalLoop=1;jettySize=auto;html=1;entryX=0;entryY=0.5;entryDx=0;entryDy=0;" parent="1" source="R0o29H9aw-5ZgJFbA4co-17" target="R0o29H9aw-5ZgJFbA4co-62" edge="1">
          <mxGeometry relative="1" as="geometry" />
        </mxCell>
        <mxCell id="R0o29H9aw-5ZgJFbA4co-66" style="edgeStyle=orthogonalEdgeStyle;rounded=0;orthogonalLoop=1;jettySize=auto;html=1;entryX=0;entryY=0.5;entryDx=0;entryDy=0;entryPerimeter=0;dashed=1;strokeWidth=2;" parent="1" source="R0o29H9aw-5ZgJFbA4co-62" target="R0o29H9aw-5ZgJFbA4co-19" edge="1">
          <mxGeometry relative="1" as="geometry" />
        </mxCell>
        <mxCell id="R0o29H9aw-5ZgJFbA4co-71" style="edgeStyle=orthogonalEdgeStyle;rounded=0;orthogonalLoop=1;jettySize=auto;html=1;entryX=0;entryY=0.5;entryDx=0;entryDy=0;endArrow=none;endFill=0;strokeWidth=2;" parent="1" source="R0o29H9aw-5ZgJFbA4co-67" target="R0o29H9aw-5ZgJFbA4co-70" edge="1">
          <mxGeometry relative="1" as="geometry" />
        </mxCell>
        <mxCell id="R0o29H9aw-5ZgJFbA4co-67" value="Web Server" style="rounded=1;whiteSpace=wrap;html=1;fillColor=#d5e8d4;strokeColor=#82b366;sketch=1;curveFitting=1;jiggle=2;gradientColor=#97d077;" parent="1" vertex="1">
          <mxGeometry x="1140" y="470" width="120" height="60" as="geometry" />
        </mxCell>
        <mxCell id="R0o29H9aw-5ZgJFbA4co-70" value="Download Configuration" style="shape=hexagon;perimeter=hexagonPerimeter2;whiteSpace=wrap;html=1;fixedSize=1;fillColor=#d0cee2;strokeColor=#56517e;rounded=0;labelPosition=center;verticalLabelPosition=bottom;align=center;verticalAlign=top;" parent="1" vertex="1">
          <mxGeometry x="1290" y="485" width="60" height="30" as="geometry" />
        </mxCell>
      </root>
    </mxGraphModel>
  </diagram>
</mxfile>
